<svg id="my-svg" width="100%" xmlns="http://www.w3.org/2000/svg" xmlns:xlink="http://www.w3.org/1999/xlink" class="statediagram" style="max-width: 1150.6px; background-color: white;" viewBox="0 0 1150.60498046875 814" role="graphics-document document" aria-roledescription="stateDiagram"><style>#my-svg{font-family:"trebuchet ms",verdana,arial,sans-serif;font-size:16px;fill:#000000;}@keyframes edge-animation-frame{from{stroke-dashoffset:0;}}@keyframes dash{to{stroke-dashoffset:0;}}#my-svg .edge-animation-slow{stroke-dasharray:9,5!important;stroke-dashoffset:900;animation:dash 50s linear infinite;stroke-linecap:round;}#my-svg .edge-animation-fast{stroke-dasharray:9,5!important;stroke-dashoffset:900;animation:dash 20s linear infinite;stroke-linecap:round;}#my-svg .error-icon{fill:#552222;}#my-svg .error-text{fill:#552222;stroke:#552222;}#my-svg .edge-thickness-normal{stroke-width:1px;}#my-svg .edge-thickness-thick{stroke-width:3.5px;}#my-svg .edge-pattern-solid{stroke-dasharray:0;}#my-svg .edge-thickness-invisible{stroke-width:0;fill:none;}#my-svg .edge-pattern-dashed{stroke-dasharray:3;}#my-svg .edge-pattern-dotted{stroke-dasharray:2;}#my-svg .marker{fill:#666;stroke:#666;}#my-svg .marker.cross{stroke:#666;}#my-svg svg{font-family:"trebuchet ms",verdana,arial,sans-serif;font-size:16px;}#my-svg p{margin:0;}#my-svg defs [id$="-barbEnd"]{fill:#000;stroke:#000;}#my-svg g.stateGroup text{fill:#999;stroke:none;font-size:10px;}#my-svg g.stateGroup text{fill:#000000;stroke:none;font-size:10px;}#my-svg g.stateGroup .state-title{font-weight:bolder;fill:#111111;}#my-svg g.stateGroup rect{fill:#eee;stroke:#999;}#my-svg g.stateGroup line{stroke:#666;stroke-width:1;}#my-svg .transition{stroke:#000;stroke-width:1;fill:none;}#my-svg .stateGroup .composit{fill:#ffffff;border-bottom:1px;}#my-svg .stateGroup .alt-composit{fill:#e0e0e0;border-bottom:1px;}#my-svg .state-note{stroke:#999;fill:#666;}#my-svg .state-note text{fill:#fff;stroke:none;font-size:10px;}#my-svg .stateLabel .box{stroke:none;stroke-width:0;fill:#eee;opacity:0.5;}#my-svg .edgeLabel .label rect{fill:#eee;opacity:0.5;}#my-svg .edgeLabel{background-color:white;text-align:center;}#my-svg .edgeLabel p{background-color:white;}#my-svg .edgeLabel rect{opacity:0.5;background-color:white;fill:white;}#my-svg .edgeLabel .label text{fill:#000000;}#my-svg .label div .edgeLabel{color:#000000;}#my-svg .stateLabel text{fill:#111111;font-size:10px;font-weight:bold;}#my-svg .node circle.state-start{fill:#222;stroke:#222;}#my-svg .node .fork-join{fill:#222;stroke:#222;}#my-svg .node circle.state-end{fill:hsl(0, 0%, 83.3333333333%);stroke:#ffffff;stroke-width:1.5;}#my-svg .end-state-inner{fill:#ffffff;stroke-width:1.5;}#my-svg .node rect{fill:#eee;stroke:#000;stroke-width:1px;}#my-svg .node polygon{fill:#eee;stroke:#000;stroke-width:1px;}#my-svg [id$="-barbEnd"]{fill:#666;}#my-svg .statediagram-cluster rect{fill:#eee;stroke:#000;stroke-width:1px;}#my-svg .cluster-label,#my-svg .nodeLabel{color:#111111;}#my-svg .statediagram-cluster rect.outer{rx:5px;ry:5px;}#my-svg .statediagram-state .divider{stroke:#000;}#my-svg .statediagram-state .title-state{rx:5px;ry:5px;}#my-svg .statediagram-cluster.statediagram-cluster .inner{fill:#ffffff;}#my-svg .statediagram-cluster.statediagram-cluster-alt .inner{fill:#f4f4f4;}#my-svg .statediagram-cluster .inner{rx:0;ry:0;}#my-svg .statediagram-state rect.basic{rx:5px;ry:5px;}#my-svg .statediagram-state rect.divider{stroke-dasharray:10,10;fill:#f4f4f4;}#my-svg .note-edge{stroke-dasharray:5;}#my-svg .statediagram-note rect{fill:#666;stroke:#999;stroke-width:1px;rx:0;ry:0;}#my-svg .statediagram-note rect{fill:#666;stroke:#999;stroke-width:1px;rx:0;ry:0;}#my-svg .statediagram-note text{fill:#fff;}#my-svg .statediagram-note .nodeLabel{color:#fff;}#my-svg .statediagram .edgeLabel{color:red;}#my-svg [id$="-dependencyStart"],#my-svg [id$="-dependencyEnd"]{fill:#666;stroke:#666;stroke-width:1;}#my-svg .statediagramTitleText{text-anchor:middle;font-size:18px;fill:#000000;}#my-svg [data-look="neo"].statediagram-cluster rect{fill:#eee;stroke:url(#my-svg-gradient);stroke-width:1;}#my-svg [data-look="neo"].statediagram-cluster rect.outer{rx:5px;ry:5px;filter:drop-shadow( 1px 2px 2px rgba(185,185,185,1));}#my-svg .node .neo-node{stroke:#999;}#my-svg [data-look="neo"].node rect,#my-svg [data-look="neo"].cluster rect,#my-svg [data-look="neo"].node polygon{stroke:url(#my-svg-gradient);filter:drop-shadow( 1px 2px 2px rgba(185,185,185,1));}#my-svg [data-look="neo"].node path{stroke:url(#my-svg-gradient);stroke-width:1px;}#my-svg [data-look="neo"].node .outer-path{filter:drop-shadow( 1px 2px 2px rgba(185,185,185,1));}#my-svg [data-look="neo"].node .neo-line path{stroke:#999;filter:none;}#my-svg [data-look="neo"].node circle{stroke:url(#my-svg-gradient);filter:drop-shadow( 1px 2px 2px rgba(185,185,185,1));}#my-svg [data-look="neo"].node circle .state-start{fill:#000000;}#my-svg [data-look="neo"].icon-shape .icon{fill:url(#my-svg-gradient);filter:drop-shadow( 1px 2px 2px rgba(185,185,185,1));}#my-svg [data-look="neo"].icon-shape .icon-neo path{stroke:url(#my-svg-gradient);filter:drop-shadow( 1px 2px 2px rgba(185,185,185,1));}#my-svg :root{--mermaid-font-family:"trebuchet ms",verdana,arial,sans-serif;}</style><g><defs><marker id="my-svg_stateDiagram-barbEnd" refX="19" refY="7" markerWidth="20" markerHeight="14" markerUnits="userSpaceOnUse" orient="auto"><path d="M 19,7 L9,13 L14,7 L9,1 Z"/></marker></defs><g class="root"><g class="clusters"><g class="note-cluster" id="my-svg-state-Pending----parent-8"><rect x="8" y="258" width="257.953125" height="128" fill="none"/></g><g class="note-cluster" id="my-svg-state-Unavailable----parent-9"><rect x="699.6109375003725" y="654" width="295.46875" height="152" fill="none"/></g></g><g class="edgePaths"><path d="M473.478,22L473.478,30.167C473.478,38.333,473.478,54.667,473.478,71C473.478,87.333,473.478,103.667,473.478,111.833L473.478,120" id="my-svg-edge0" class="edge-thickness-normal edge-pattern-solid transition" style="fill:none;;;fill:none" data-edge="true" data-et="edge" data-id="edge0" data-points="W3sieCI6NDczLjQ3ODEyNTAwMDM3MjUzLCJ5IjoyMn0seyJ4Ijo0NzMuNDc4MTI1MDAwMzcyNTMsInkiOjcxfSx7IngiOjQ3My40NzgxMjUwMDAzNzI1MywieSI6MTIwfV0=" data-look="classic" marker-end="url(#my-svg_stateDiagram-barbEnd)"/><path d="M509.423,146.12L570.976,156.6C632.528,167.08,755.633,188.04,817.185,206.687C878.738,225.333,878.738,241.667,878.738,257.167C878.738,272.667,878.738,287.333,878.738,294.667L878.738,302" id="my-svg-edge1" class="edge-thickness-normal edge-pattern-solid transition" style="fill:none;;;fill:none" data-edge="true" data-et="edge" data-id="edge1" data-points="W3sieCI6NTA5LjQyMzQzNzUwMDM3MjUzLCJ5IjoxNDYuMTIwMDk2Njk3MzI1NTV9LHsieCI6ODc4LjczNzUwMDAwMDc0NTEsInkiOjIwOX0seyJ4Ijo4NzguNzM3NTAwMDAwNzQ1MSwieSI6MjU4fSx7IngiOjg3OC43Mzc1MDAwMDA3NDUxLCJ5IjozMDJ9XQ==" data-look="classic" marker-end="url(#my-svg_stateDiagram-barbEnd)"/><path d="M456.087,160L448.985,168.167C441.884,176.333,427.681,192.667,420.58,209C413.478,225.333,413.478,241.667,413.478,260.492C413.478,279.317,413.478,300.633,413.478,311.292L413.478,321.95" id="my-svg-Pending-cyclic-special-1" class="edge-thickness-normal edge-pattern-solid transition" style="fill:none;;;fill:none" data-edge="true" data-et="edge" data-id="Pending-cyclic-special-1" data-points="W3sieCI6NDU2LjA4NjgyMDY1MjU0NjQ2LCJ5IjoxNjB9LHsieCI6NDEzLjQ3ODEyNTAwMDM3MjUzLCJ5IjoyMDl9LHsieCI6NDEzLjQ3ODEyNTAwMDM3MjUzLCJ5IjoyNTh9LHsieCI6NDEzLjQ3ODEyNTAwMDM3MjUzLCJ5IjozMjEuOTQ5OTk5OTk5MjU0OTR9XQ==" data-look="classic"/><path d="M413.478,322.05L413.478,332.708C413.478,343.367,413.478,364.683,413.478,383.508C413.478,402.333,413.478,418.667,423.471,438.992C433.464,459.317,453.451,483.633,463.444,495.792L473.437,507.95" id="my-svg-Pending-cyclic-special-mid" class="edge-thickness-normal edge-pattern-solid transition" style="fill:none;;;fill:none" data-edge="true" data-et="edge" data-id="Pending-cyclic-special-mid" data-points="W3sieCI6NDEzLjQ3ODEyNTAwMDM3MjUzLCJ5IjozMjIuMDUwMDAwMDAwNzQ1MDZ9LHsieCI6NDEzLjQ3ODEyNTAwMDM3MjUzLCJ5IjozODZ9LHsieCI6NDEzLjQ3ODEyNTAwMDM3MjUzLCJ5Ijo0MzV9LHsieCI6NDczLjQzNzAyOTEwOTM0OTE3LCJ5Ijo1MDcuOTQ5OTk5OTk5MjU0OTR9XQ==" data-look="classic"/><path d="M473.519,507.95L483.512,495.792C493.506,483.633,513.492,459.317,523.485,438.992C533.478,418.667,533.478,402.333,533.478,383.5C533.478,364.667,533.478,343.333,533.478,322C533.478,300.667,533.478,279.333,533.478,260.5C533.478,241.667,533.478,225.333,526.377,209C519.275,192.667,505.072,176.333,497.971,168.167L490.869,160" id="my-svg-Pending-cyclic-special-2" class="edge-thickness-normal edge-pattern-solid transition" style="fill:none;;;fill:none" data-edge="true" data-et="edge" data-id="Pending-cyclic-special-2" data-points="W3sieCI6NDczLjUxOTIyMDg5MTM5NTksInkiOjUwNy45NDk5OTk5OTkyNTQ5NH0seyJ4Ijo1MzMuNDc4MTI1MDAwMzcyNSwieSI6NDM1fSx7IngiOjUzMy40NzgxMjUwMDAzNzI1LCJ5IjozODZ9LHsieCI6NTMzLjQ3ODEyNTAwMDM3MjUsInkiOjMyMn0seyJ4Ijo1MzMuNDc4MTI1MDAwMzcyNSwieSI6MjU4fSx7IngiOjUzMy40NzgxMjUwMDAzNzI1LCJ5IjoyMDl9LHsieCI6NDkwLjg2OTQyOTM0ODE5ODYsInkiOjE2MH1d" data-look="classic" marker-end="url(#my-svg_stateDiagram-barbEnd)"/><path d="M909.152,335.53L928.06,343.942C946.969,352.353,984.787,369.177,1003.696,385.755C1022.605,402.333,1022.605,418.667,1022.605,438.992C1022.605,459.317,1022.605,483.633,1022.605,495.792L1022.605,507.95" id="my-svg-Active-cyclic-special-1" class="edge-thickness-normal edge-pattern-solid transition" style="fill:none;;;fill:none" data-edge="true" data-et="edge" data-id="Active-cyclic-special-1" data-points="W3sieCI6OTA5LjE1MTU2MjUwMDc0NTEsInkiOjMzNS41Mjk4Mzk4MDQ1MDcyfSx7IngiOjEwMjIuNjA0Njg3NTAwNzQ1MSwieSI6Mzg2fSx7IngiOjEwMjIuNjA0Njg3NTAwNzQ1MSwieSI6NDM1fSx7IngiOjEwMjIuNjA0Njg3NTAwNzQ1MSwieSI6NTA3Ljk0OTk5OTk5OTI1NDk0fV0=" data-look="classic"/><path d="M1022.605,508.05L1022.605,522.208C1022.605,536.367,1022.605,564.683,1022.605,589.008C1022.605,613.333,1022.605,633.667,1032.598,656.492C1042.592,679.317,1062.578,704.633,1072.572,717.292L1082.565,729.95" id="my-svg-Active-cyclic-special-mid" class="edge-thickness-normal edge-pattern-solid transition" style="fill:none;;;fill:none" data-edge="true" data-et="edge" data-id="Active-cyclic-special-mid" data-points="W3sieCI6MTAyMi42MDQ2ODc1MDA3NDUxLCJ5Ijo1MDguMDUwMDAwMDAwNzQ1MDZ9LHsieCI6MTAyMi42MDQ2ODc1MDA3NDUxLCJ5Ijo1OTN9LHsieCI6MTAyMi42MDQ2ODc1MDA3NDUxLCJ5Ijo2NTR9LHsieCI6MTA4Mi41NjUyMTM4MTU5NDY0LCJ5Ijo3MjkuOTQ5OTk5OTk5MjU0OX1d" data-look="classic"/><path d="M1082.644,729.95L1092.638,717.292C1102.631,704.633,1122.618,679.317,1132.611,656.492C1142.605,633.667,1142.605,613.333,1142.605,589C1142.605,564.667,1142.605,536.333,1142.605,510C1142.605,483.667,1142.605,459.333,1142.605,439C1142.605,418.667,1142.605,402.333,1103.696,384.729C1064.787,367.126,986.969,348.251,948.06,338.814L909.152,329.377" id="my-svg-Active-cyclic-special-2" class="edge-thickness-normal edge-pattern-solid transition" style="fill:none;;;fill:none" data-edge="true" data-et="edge" data-id="Active-cyclic-special-2" data-points="W3sieCI6MTA4Mi42NDQxNjExODU1NDM3LCJ5Ijo3MjkuOTQ5OTk5OTk5MjU0OX0seyJ4IjoxMTQyLjYwNDY4NzUwMDc0NSwieSI6NjU0fSx7IngiOjExNDIuNjA0Njg3NTAwNzQ1LCJ5Ijo1OTN9LHsieCI6MTE0Mi42MDQ2ODc1MDA3NDUsInkiOjUwOH0seyJ4IjoxMTQyLjYwNDY4NzUwMDc0NSwieSI6NDM1fSx7IngiOjExNDIuNjA0Njg3NTAwNzQ1LCJ5IjozODZ9LHsieCI6OTA5LjE1MTU2MjUwMDc0NTEsInkiOjMyOS4zNzY4MTcxNzI0NjQ4fV0=" data-look="classic" marker-end="url(#my-svg_stateDiagram-barbEnd)"/><path d="M848.323,330.641L815.849,339.868C783.375,349.094,718.427,367.547,685.952,384.94C653.478,402.333,653.478,418.667,666.789,435.667C680.099,452.667,706.72,470.333,720.031,479.167L733.341,488" id="my-svg-edge4" class="edge-thickness-normal edge-pattern-solid transition" style="fill:none;;;fill:none" data-edge="true" data-et="edge" data-id="edge4" data-points="W3sieCI6ODQ4LjMyMzQzNzUwMDc0NTEsInkiOjMzMC42NDExNDk3ODU2NDk1fSx7IngiOjY1My40NzgxMjUwMDAzNzI1LCJ5IjozODZ9LHsieCI6NjUzLjQ3ODEyNTAwMDM3MjUsInkiOjQzNX0seyJ4Ijo3MzMuMzQxMTM4Njk5MDAyNiwieSI6NDg4fV0=" data-look="classic" marker-end="url(#my-svg_stateDiagram-barbEnd)"/><path d="M795.056,488L809.003,479.167C822.95,470.333,850.844,452.667,864.791,435.667C878.738,418.667,878.738,402.333,878.738,386.833C878.738,371.333,878.738,356.667,878.738,349.333L878.738,342" id="my-svg-edge5" class="edge-thickness-normal edge-pattern-solid transition" style="fill:none;;;fill:none" data-edge="true" data-et="edge" data-id="edge5" data-points="W3sieCI6Nzk1LjA1NjAzNTk1OTM3ODcsInkiOjQ4OH0seyJ4Ijo4NzguNzM3NTAwMDAwNzQ1MSwieSI6NDM1fSx7IngiOjg3OC43Mzc1MDAwMDA3NDUxLCJ5IjozODZ9LHsieCI6ODc4LjczNzUwMDAwMDc0NTEsInkiOjM0Mn1d" data-look="classic" marker-end="url(#my-svg_stateDiagram-barbEnd)"/><path d="M848.323,325.284L754.595,335.403C660.867,345.522,473.41,365.761,379.682,384.047C285.953,402.333,285.953,418.667,285.953,439C285.953,459.333,285.953,483.667,285.953,510C285.953,536.333,285.953,564.667,285.953,589C285.953,613.333,285.953,633.667,295.23,655.583C304.506,677.5,323.059,701,332.335,712.751L341.611,724.501" id="my-svg-edge6" class="edge-thickness-normal edge-pattern-solid transition" style="fill:none;;;fill:none" data-edge="true" data-et="edge" data-id="edge6" data-points="W3sieCI6ODQ4LjMyMzQzNzUwMDc0NTEsInkiOjMyNS4yODM2NTYwNTExNTI4fSx7IngiOjI4NS45NTMxMjUsInkiOjM4Nn0seyJ4IjoyODUuOTUzMTI1LCJ5Ijo0MzV9LHsieCI6Mjg1Ljk1MzEyNSwieSI6NTA4fSx7IngiOjI4NS45NTMxMjUsInkiOjU5M30seyJ4IjoyODUuOTUzMTI1LCJ5Ijo2NTR9LHsieCI6MzQxLjYxMTQ5NjQzMTY3ODMsInkiOjcyNC41MDA2MDM4MTM0NTkyfV0=" data-look="classic" marker-end="url(#my-svg_stateDiagram-barbEnd)"/><path d="M713.572,526.444L683.556,537.536C653.541,548.629,593.509,570.815,563.494,592.074C533.478,613.333,533.478,633.667,503.306,656.061C473.134,678.456,412.791,702.912,382.619,715.14L352.447,727.368" id="my-svg-edge7" class="edge-thickness-normal edge-pattern-solid transition" style="fill:none;;;fill:none" data-edge="true" data-et="edge" data-id="edge7" data-points="W3sieCI6NzEzLjU3MTg3NTAwMDM3MjUsInkiOjUyNi40NDM2MTQxMzA0MzQ4fSx7IngiOjUzMy40NzgxMjUwMDAzNzI1LCJ5Ijo1OTN9LHsieCI6NTMzLjQ3ODEyNTAwMDM3MjUsInkiOjY1NH0seyJ4IjozNTIuNDQ2NzQ0NjYyNjI5NCwieSI6NzI3LjM2ODI3MDM5NDAzMzZ9XQ==" data-look="classic" marker-end="url(#my-svg_stateDiagram-barbEnd)"/><path d="M437.533,147.371L387.44,157.642C337.347,167.914,237.162,188.457,187.069,206.895C136.977,225.333,136.977,241.667,136.977,254C136.977,266.333,136.977,274.667,136.977,278.833L136.977,283" id="my-svg-Pending-Pending----note-8" class="edge-thickness-normal edge-pattern-solid transition note-edge" style="fill:none;;;fill:none" data-edge="true" data-et="edge" data-id="Pending-Pending----note-8" data-points="W3sieCI6NDM3LjUzMjgxMjUwMDM3MjUzLCJ5IjoxNDcuMzcwNjI0MjA3NzE3NDd9LHsieCI6MTM2Ljk3NjU2MjUsInkiOjIwOX0seyJ4IjoxMzYuOTc2NTYyNSwieSI6MjU4fSx7IngiOjEzNi45NzY1NjI1LCJ5IjoyODN9XQ==" data-look="classic"/><path d="M783.212,528L793.901,538.833C804.589,549.667,825.967,571.333,836.656,592.333C847.345,613.333,847.345,633.667,847.345,648C847.345,662.333,847.345,670.667,847.345,674.833L847.345,679" id="my-svg-Unavailable-Unavailable----note-9" class="edge-thickness-normal edge-pattern-solid transition note-edge" style="fill:none;;;fill:none" data-edge="true" data-et="edge" data-id="Unavailable-Unavailable----note-9" data-points="W3sieCI6NzgzLjIxMTU4MDg4MjcyNTUsInkiOjUyOH0seyJ4Ijo4NDcuMzQ1MzEyNTAwMzcyNSwieSI6NTkzfSx7IngiOjg0Ny4zNDUzMTI1MDAzNzI1LCJ5Ijo2NTR9LHsieCI6ODQ3LjM0NTMxMjUwMDM3MjUsInkiOjY3OX1d" data-look="classic"/></g><g class="edgeLabels"><g class="edgeLabel" transform="translate(473.47812500037253, 71)"><g class="label" data-id="edge0" transform="translate(-100, -24)"><foreignObject width="200" height="48"><div xmlns="http://www.w3.org/1999/xhtml" class="labelBkg" style="display: table; white-space: break-spaces; line-height: 1.5; max-width: 200px; text-align: center; width: 200px;"><span class="edgeLabel"><p>Entra user created (token issued)</p></span></div></foreignObject></g></g><g class="edgeLabel" transform="translate(878.7375000007451, 209)"><g class="label" data-id="edge1" transform="translate(-100, -24)"><foreignObject width="200" height="48"><div xmlns="http://www.w3.org/1999/xhtml" class="labelBkg" style="display: table; white-space: break-spaces; line-height: 1.5; max-width: 200px; text-align: center; width: 200px;"><span class="edgeLabel"><p>POST /api/auth/signup returns 201</p></span></div></foreignObject></g></g><g class="edgeLabel"><g class="label" data-id="Pending-cyclic-special-1" transform="translate(0, 0)"><foreignObject width="0" height="0"><div xmlns="http://www.w3.org/1999/xhtml" class="labelBkg" style="display: table-cell; white-space: nowrap; line-height: 1.5; max-width: 200px; text-align: center;"><span class="edgeLabel"></span></div></foreignObject></g></g><g class="edgeLabel" transform="translate(413.47812500037253, 435)"><g class="label" data-id="Pending-cyclic-special-mid" transform="translate(-100, -24)"><foreignObject width="200" height="48"><div xmlns="http://www.w3.org/1999/xhtml" class="labelBkg" style="display: table; white-space: break-spaces; line-height: 1.5; max-width: 200px; text-align: center; width: 200px;"><span class="edgeLabel"><p>signup failed -- retry via self-heal</p></span></div></foreignObject></g></g><g class="edgeLabel"><g class="label" data-id="Pending-cyclic-special-2" transform="translate(0, 0)"><foreignObject width="0" height="0"><div xmlns="http://www.w3.org/1999/xhtml" class="labelBkg" style="display: table-cell; white-space: nowrap; line-height: 1.5; max-width: 200px; text-align: center;"><span class="edgeLabel"></span></div></foreignObject></g></g><g class="edgeLabel"><g class="label" data-id="Active-cyclic-special-1" transform="translate(0, 0)"><foreignObject width="0" height="0"><div xmlns="http://www.w3.org/1999/xhtml" class="labelBkg" style="display: table-cell; white-space: nowrap; line-height: 1.5; max-width: 200px; text-align: center;"><span class="edgeLabel"></span></div></foreignObject></g></g><g class="edgeLabel" transform="translate(1022.6046875007451, 593)"><g class="label" data-id="Active-cyclic-special-mid" transform="translate(-100, -36)"><foreignObject width="200" height="72"><div xmlns="http://www.w3.org/1999/xhtml" class="labelBkg" style="display: table; white-space: break-spaces; line-height: 1.5; max-width: 200px; text-align: center; width: 200px;"><span class="edgeLabel"><p>PATCH updates (display_name, location, is_available)</p></span></div></foreignObject></g></g><g class="edgeLabel"><g class="label" data-id="Active-cyclic-special-2" transform="translate(0, 0)"><foreignObject width="0" height="0"><div xmlns="http://www.w3.org/1999/xhtml" class="labelBkg" style="display: table-cell; white-space: nowrap; line-height: 1.5; max-width: 200px; text-align: center;"><span class="edgeLabel"></span></div></foreignObject></g></g><g class="edgeLabel" transform="translate(653.4781250003725, 435)"><g class="label" data-id="edge4" transform="translate(-100, -24)"><foreignObject width="200" height="48"><div xmlns="http://www.w3.org/1999/xhtml" class="labelBkg" style="display: table; white-space: break-spaces; line-height: 1.5; max-width: 200px; text-align: center; width: 200px;"><span class="edgeLabel"><p>Donor toggles is_available=false</p></span></div></foreignObject></g></g><g class="edgeLabel" transform="translate(878.7375000007451, 435)"><g class="label" data-id="edge5" transform="translate(-100, -24)"><foreignObject width="200" height="48"><div xmlns="http://www.w3.org/1999/xhtml" class="labelBkg" style="display: table; white-space: break-spaces; line-height: 1.5; max-width: 200px; text-align: center; width: 200px;"><span class="edgeLabel"><p>Donor toggles is_available=true</p></span></div></foreignObject></g></g><g class="edgeLabel" transform="translate(285.953125, 508)"><g class="label" data-id="edge6" transform="translate(-100, -24)"><foreignObject width="200" height="48"><div xmlns="http://www.w3.org/1999/xhtml" class="labelBkg" style="display: table; white-space: break-spaces; line-height: 1.5; max-width: 200px; text-align: center; width: 200px;"><span class="edgeLabel"><p>account deleted (Phase 2, out of scope)</p></span></div></foreignObject></g></g><g class="edgeLabel" transform="translate(533.4781250003725, 593)"><g class="label" data-id="edge7" transform="translate(-100, -24)"><foreignObject width="200" height="48"><div xmlns="http://www.w3.org/1999/xhtml" class="labelBkg" style="display: table; white-space: break-spaces; line-height: 1.5; max-width: 200px; text-align: center; width: 200px;"><span class="edgeLabel"><p>account deleted (Phase 2, out of scope)</p></span></div></foreignObject></g></g><g class="edgeLabel"><g class="label" data-id="Pending-Pending----note-8" transform="translate(0, 0)"><foreignObject width="0" height="0"><div xmlns="http://www.w3.org/1999/xhtml" class="labelBkg" style="display: table-cell; white-space: nowrap; line-height: 1.5; max-width: 200px; text-align: center;"><span class="edgeLabel"></span></div></foreignObject></g></g><g class="edgeLabel"><g class="label" data-id="Unavailable-Unavailable----note-9" transform="translate(0, 0)"><foreignObject width="0" height="0"><div xmlns="http://www.w3.org/1999/xhtml" class="labelBkg" style="display: table-cell; white-space: nowrap; line-height: 1.5; max-width: 200px; text-align: center;"><span class="edgeLabel"></span></div></foreignObject></g></g></g><g class="nodes"><g class="node default" id="my-svg-state-root_start-0" data-look="classic" transform="translate(473.47812500037253, 15)"><circle class="state-start" r="7" width="14" height="14"/></g><g class="node  statediagram-state" id="my-svg-state-Pending-8" data-look="classic" transform="translate(473.47812500037253, 140)"><rect class="basic label-container" style="" rx="5" ry="5" x="-35.9453125" y="-20" width="71.890625" height="40"/><g class="label" style="" transform="translate(-27.9453125, -12)"><rect/><foreignObject width="55.890625" height="24"><div xmlns="http://www.w3.org/1999/xhtml" style="display: table-cell; white-space: nowrap; line-height: 1.5; max-width: 200px; text-align: center;"><span class="nodeLabel markdown-node-label"><p>Pending</p></span></div></foreignObject></g></g><g class="node  statediagram-state" id="my-svg-state-Active-6" data-look="classic" transform="translate(878.7375000007451, 322)"><rect class="basic label-container" style="" rx="5" ry="5" x="-30.4140625" y="-20" width="60.828125" height="40"/><g class="label" style="" transform="translate(-22.4140625, -12)"><rect/><foreignObject width="44.828125" height="24"><div xmlns="http://www.w3.org/1999/xhtml" style="display: table-cell; white-space: nowrap; line-height: 1.5; max-width: 200px; text-align: center;"><span class="nodeLabel markdown-node-label"><p>Active</p></span></div></foreignObject></g></g><g class="node  statediagram-state" id="my-svg-state-Unavailable-9" data-look="classic" transform="translate(763.4781250003725, 508)"><rect class="basic label-container" style="" rx="5" ry="5" x="-49.90625" y="-20" width="99.8125" height="40"/><g class="label" style="" transform="translate(-41.90625, -12)"><rect/><foreignObject width="83.8125" height="24"><div xmlns="http://www.w3.org/1999/xhtml" style="display: table-cell; white-space: nowrap; line-height: 1.5; max-width: 200px; text-align: center;"><span class="nodeLabel markdown-node-label"><p>Unavailable</p></span></div></foreignObject></g></g><g class="node default" id="my-svg-state-root_end-7" data-look="classic" transform="translate(345.953125, 730)"><g class="outer-path"><path d="M7 0 C7 0.40517908122283747, 6.964012880168563 0.816513743121899, 6.893654271085456 1.2155372436685123 C6.823295662002349 1.6145607442151257, 6.716427752933756 2.013397210557766, 6.5778483455013586 2.394141003279681 C6.439268938068961 2.7748847960015954, 6.26476736710249 3.149104622578984, 6.062177826491071 3.4999999999999996 C5.859588285879653 3.8508953774210153, 5.622755194947063 4.189128084166967, 5.362311101832846 4.499513267805774 C5.10186700871863 4.809898451444582, 4.809898451444583 5.10186700871863, 4.499513267805775 5.362311101832846 C4.189128084166968 5.622755194947063, 3.8508953774210166 5.859588285879652, 3.500000000000001 6.06217782649107 C3.149104622578985 6.264767367102489, 2.7748847960015963 6.439268938068961, 2.3941410032796817 6.5778483455013586 C2.013397210557767 6.716427752933756, 1.6145607442151264 6.823295662002349, 1.2155372436685128 6.893654271085456 C0.8165137431218992 6.964012880168563, 0.4051790812228379 7, 4.286263797015736e-16 7 C-0.405179081222837 7, -0.8165137431218985 6.964012880168563, -1.2155372436685121 6.893654271085456 C-1.6145607442151257 6.823295662002349, -2.0133972105577667 6.716427752933756, -2.394141003279681 6.5778483455013586 C-2.774884796001595 6.439268938068961, -3.149104622578983 6.26476736710249, -3.4999999999999982 6.062177826491071 C-3.8508953774210135 5.859588285879653, -4.189128084166966 5.6227551949470636, -4.499513267805773 5.362311101832848 C-4.809898451444581 5.101867008718632, -5.101867008718628 4.809898451444586, -5.3623111018328435 4.499513267805779 C-5.622755194947059 4.189128084166971, -5.859588285879649 3.8508953774210206, -6.062177826491068 3.5000000000000053 C-6.264767367102486 3.14910462257899, -6.439268938068958 2.774884796001602, -6.577848345501356 2.394141003279688 C-6.716427752933754 2.0133972105577738, -6.823295662002347 1.614560744215134, -6.893654271085454 1.215537243668521 C-6.9640128801685615 0.816513743121908, -6.999999999999999 0.4051790812228472, -7 1.0183126166254463e-14 C-7.000000000000001 -0.40517908122282686, -6.964012880168565 -0.8165137431218878, -6.893654271085459 -1.215537243668501 C-6.823295662002352 -1.6145607442151142, -6.716427752933759 -2.0133972105577542, -6.577848345501363 -2.394141003279669 C-6.439268938068967 -2.7748847960015834, -6.264767367102496 -3.149104622578972, -6.062177826491078 -3.4999999999999876 C-5.859588285879661 -3.8508953774210033, -5.6227551949470715 -4.1891280841669545, -5.362311101832856 -4.499513267805763 C-5.10186700871864 -4.809898451444571, -4.809898451444594 -5.10186700871862, -4.499513267805787 -5.362311101832836 C-4.189128084166979 -5.622755194947053, -3.850895377421028 -5.859588285879643, -3.5000000000000133 -6.062177826491062 C-3.1491046225789985 -6.264767367102482, -2.774884796001611 -6.439268938068954, -2.3941410032796973 -6.577848345501353 C-2.0133972105577835 -6.716427752933752, -1.6145607442151435 -6.823295662002345, -1.2155372436685306 -6.893654271085453 C-0.8165137431219176 -6.9640128801685615, -0.40517908122285695 -6.999999999999999, -1.9937625952807352e-14 -7 C0.4051790812228171 -7.000000000000001, 0.8165137431218781 -6.964012880168565, 1.2155372436684913 -6.89365427108546 C1.6145607442151044 -6.823295662002354, 2.013397210557745 -6.716427752933763, 2.3941410032796595 -6.5778483455013665 C2.774884796001574 -6.43926893806897, 3.149104622578963 -6.2647673671025, 3.499999999999979 -6.062177826491083 C3.8508953774209953 -5.859588285879665, 4.189128084166947 -5.622755194947077, 4.499513267805756 -5.362311101832862 C4.809898451444564 -5.1018670087186475, 5.101867008718613 -4.809898451444602, 5.362311101832829 -4.499513267805796 C5.622755194947046 -4.189128084166989, 5.859588285879637 -3.8508953774210393, 6.062177826491056 -3.500000000000025 C6.2647673671024755 -3.1491046225790105, 6.439268938068949 -2.774884796001623, 6.577848345501348 -2.3941410032797092 C6.716427752933747 -2.0133972105577955, 6.823295662002342 -1.6145607442151562, 6.893654271085451 -1.2155372436685434 C6.96401288016856 -0.8165137431219307, 6.982275711847575 -0.2025895406114567, 7 -3.2800750208310675e-14 C7.017724288152425 0.2025895406113911, 7.017724288152424 -0.2025895406114242, 7 0" stroke="none" stroke-width="0" fill="#eee" style=""/><path d="M7 0 C7 0.40517908122283747, 6.964012880168563 0.816513743121899, 6.893654271085456 1.2155372436685123 C6.823295662002349 1.6145607442151257, 6.716427752933756 2.013397210557766, 6.5778483455013586 2.394141003279681 C6.439268938068961 2.7748847960015954, 6.26476736710249 3.149104622578984, 6.062177826491071 3.4999999999999996 C5.859588285879653 3.8508953774210153, 5.622755194947063 4.189128084166967, 5.362311101832846 4.499513267805774 C5.10186700871863 4.809898451444582, 4.809898451444583 5.10186700871863, 4.499513267805775 5.362311101832846 C4.189128084166968 5.622755194947063, 3.8508953774210166 5.859588285879652, 3.500000000000001 6.06217782649107 C3.149104622578985 6.264767367102489, 2.7748847960015963 6.439268938068961, 2.3941410032796817 6.5778483455013586 C2.013397210557767 6.716427752933756, 1.6145607442151264 6.823295662002349, 1.2155372436685128 6.893654271085456 C0.8165137431218992 6.964012880168563, 0.4051790812228379 7, 4.286263797015736e-16 7 C-0.405179081222837 7, -0.8165137431218985 6.964012880168563, -1.2155372436685121 6.893654271085456 C-1.6145607442151257 6.823295662002349, -2.0133972105577667 6.716427752933756, -2.394141003279681 6.5778483455013586 C-2.774884796001595 6.439268938068961, -3.149104622578983 6.26476736710249, -3.4999999999999982 6.062177826491071 C-3.8508953774210135 5.859588285879653, -4.189128084166966 5.6227551949470636, -4.499513267805773 5.362311101832848 C-4.809898451444581 5.101867008718632, -5.101867008718628 4.809898451444586, -5.3623111018328435 4.499513267805779 C-5.622755194947059 4.189128084166971, -5.859588285879649 3.8508953774210206, -6.062177826491068 3.5000000000000053 C-6.264767367102486 3.14910462257899, -6.439268938068958 2.774884796001602, -6.577848345501356 2.394141003279688 C-6.716427752933754 2.0133972105577738, -6.823295662002347 1.614560744215134, -6.893654271085454 1.215537243668521 C-6.9640128801685615 0.816513743121908, -6.999999999999999 0.4051790812228472, -7 1.0183126166254463e-14 C-7.000000000000001 -0.40517908122282686, -6.964012880168565 -0.8165137431218878, -6.893654271085459 -1.215537243668501 C-6.823295662002352 -1.6145607442151142, -6.716427752933759 -2.0133972105577542, -6.577848345501363 -2.394141003279669 C-6.439268938068967 -2.7748847960015834, -6.264767367102496 -3.149104622578972, -6.062177826491078 -3.4999999999999876 C-5.859588285879661 -3.8508953774210033, -5.6227551949470715 -4.1891280841669545, -5.362311101832856 -4.499513267805763 C-5.10186700871864 -4.809898451444571, -4.809898451444594 -5.10186700871862, -4.499513267805787 -5.362311101832836 C-4.189128084166979 -5.622755194947053, -3.850895377421028 -5.859588285879643, -3.5000000000000133 -6.062177826491062 C-3.1491046225789985 -6.264767367102482, -2.774884796001611 -6.439268938068954, -2.3941410032796973 -6.577848345501353 C-2.0133972105577835 -6.716427752933752, -1.6145607442151435 -6.823295662002345, -1.2155372436685306 -6.893654271085453 C-0.8165137431219176 -6.9640128801685615, -0.40517908122285695 -6.999999999999999, -1.9937625952807352e-14 -7 C0.4051790812228171 -7.000000000000001, 0.8165137431218781 -6.964012880168565, 1.2155372436684913 -6.89365427108546 C1.6145607442151044 -6.823295662002354, 2.013397210557745 -6.716427752933763, 2.3941410032796595 -6.5778483455013665 C2.774884796001574 -6.43926893806897, 3.149104622578963 -6.2647673671025, 3.499999999999979 -6.062177826491083 C3.8508953774209953 -5.859588285879665, 4.189128084166947 -5.622755194947077, 4.499513267805756 -5.362311101832862 C4.809898451444564 -5.1018670087186475, 5.101867008718613 -4.809898451444602, 5.362311101832829 -4.499513267805796 C5.622755194947046 -4.189128084166989, 5.859588285879637 -3.8508953774210393, 6.062177826491056 -3.500000000000025 C6.2647673671024755 -3.1491046225790105, 6.439268938068949 -2.774884796001623, 6.577848345501348 -2.3941410032797092 C6.716427752933747 -2.0133972105577955, 6.823295662002342 -1.6145607442151562, 6.893654271085451 -1.2155372436685434 C6.96401288016856 -0.8165137431219307, 6.982275711847575 -0.2025895406114567, 7 -3.2800750208310675e-14 C7.017724288152425 0.2025895406113911, 7.017724288152424 -0.2025895406114242, 7 0" stroke="#666" stroke-width="2" fill="none" stroke-dasharray="0 0" style=""/><g><path d="M2.5 0 C2.5 0.14470681472244193, 2.487147457203058 0.29161205111496386, 2.46201938253052 0.4341204441673258 C2.436891307857982 0.5766288372196877, 2.3987241974763416 0.7190704323420595, 2.3492315519647713 0.8550503583141718 C2.299738906453201 0.991030284286284, 2.2374169168223177 1.124680222349637, 2.165063509461097 1.2499999999999998 C2.092710102099876 1.3753197776503625, 2.0081268553382365 1.496117172916774, 1.915111107797445 1.6069690242163481 C1.8220953602566536 1.7178208755159223, 1.7178208755159226 1.8220953602566536, 1.6069690242163484 1.915111107797445 C1.4961171729167742 2.0081268553382365, 1.375319777650363 2.0927101020998755, 1.2500000000000002 2.1650635094610964 C1.1246802223496375 2.2374169168223172, 0.9910302842862845 2.2997389064532, 0.8550503583141721 2.349231551964771 C0.7190704323420597 2.3987241974763416, 0.576628837219688 2.436891307857982, 0.43412044416732604 2.46201938253052 C0.291612051114964 2.487147457203058, 0.14470681472244212 2.5, 1.5308084989341916e-16 2.5 C-0.1447068147224418 2.5, -0.2916120511149638 2.487147457203058, -0.43412044416732576 2.46201938253052 C-0.5766288372196877 2.436891307857982, -0.7190704323420595 2.3987241974763416, -0.8550503583141718 2.3492315519647713 C-0.991030284286284 2.299738906453201, -1.124680222349637 2.2374169168223177, -1.2499999999999996 2.165063509461097 C-1.375319777650362 2.092710102099876, -1.4961171729167733 2.008126855338237, -1.6069690242163475 1.9151111077974459 C-1.7178208755159217 1.8220953602566548, -1.822095360256653 1.7178208755159234, -1.9151111077974443 1.6069690242163495 C-2.0081268553382357 1.4961171729167755, -2.0927101020998746 1.3753197776503645, -2.1650635094610955 1.250000000000002 C-2.2374169168223164 1.1246802223496395, -2.2997389064531992 0.9910302842862865, -2.34923155196477 0.8550503583141743 C-2.3987241974763407 0.7190704323420621, -2.436891307857981 0.5766288372196907, -2.4620193825305194 0.434120444167329 C-2.487147457203058 0.29161205111496724, -2.5 0.14470681472244545, -2.5 3.636830773662308e-15 C-2.5 -0.14470681472243818, -2.4871474572030587 -0.2916120511149599, -2.4620193825305208 -0.4341204441673218 C-2.436891307857983 -0.5766288372196837, -2.398724197476343 -0.7190704323420553, -2.3492315519647726 -0.8550503583141675 C-2.2997389064532023 -0.9910302842862798, -2.23741691682232 -1.1246802223496328, -2.165063509461099 -1.2499999999999956 C-2.092710102099878 -1.3753197776503583, -2.00812685533824 -1.4961171729167695, -1.9151111077974488 -1.606969024216344 C-1.8220953602566576 -1.7178208755159183, -1.7178208755159263 -1.82209536025665, -1.6069690242163523 -1.9151111077974416 C-1.4961171729167784 -2.0081268553382334, -1.3753197776503672 -2.0927101020998724, -1.2500000000000047 -2.1650635094610937 C-1.1246802223496422 -2.237416916822315, -0.9910302842862897 -2.299738906453198, -0.8550503583141776 -2.3492315519647686 C-0.7190704323420656 -2.3987241974763394, -0.5766288372196942 -2.4368913078579806, -0.43412044416733236 -2.462019382530519 C-0.29161205111497057 -2.4871474572030574, -0.1447068147224489 -2.4999999999999996, -7.120580697431198e-15 -2.5 C0.14470681472243463 -2.5000000000000004, 0.29161205111495647 -2.487147457203059, 0.4341204441673183 -2.4620193825305217 C0.5766288372196802 -2.436891307857984, 0.7190704323420518 -2.3987241974763442, 0.8550503583141642 -2.349231551964774 C0.9910302842862766 -2.2997389064532037, 1.1246802223496295 -2.2374169168223212, 1.2499999999999925 -2.165063509461101 C1.3753197776503554 -2.0927101020998804, 1.4961171729167668 -2.008126855338242, 1.6069690242163412 -1.915111107797451 C1.7178208755159157 -1.82209536025666, 1.8220953602566472 -1.7178208755159294, 1.915111107797439 -1.6069690242163557 C2.0081268553382308 -1.496117172916782, 2.09271010209987 -1.3753197776503712, 2.1650635094610915 -1.2500000000000089 C2.237416916822313 -1.1246802223496466, 2.299738906453196 -0.9910302842862939, 2.3492315519647673 -0.855050358314182 C2.3987241974763385 -0.71907043234207, 2.4368913078579792 -0.5766288372196986, 2.462019382530518 -0.4341204441673369 C2.487147457203057 -0.29161205111497523, 2.4936698970884197 -0.07235340736123454, 2.5 -1.1714553645825241e-14 C2.5063301029115803 0.07235340736121111, 2.50633010291158 -0.07235340736122292, 2.5 0" stroke="none" stroke-width="0" fill="#000" style=""/><path d="M2.5 0 C2.5 0.14470681472244193, 2.487147457203058 0.29161205111496386, 2.46201938253052 0.4341204441673258 C2.436891307857982 0.5766288372196877, 2.3987241974763416 0.7190704323420595, 2.3492315519647713 0.8550503583141718 C2.299738906453201 0.991030284286284, 2.2374169168223177 1.124680222349637, 2.165063509461097 1.2499999999999998 C2.092710102099876 1.3753197776503625, 2.0081268553382365 1.496117172916774, 1.915111107797445 1.6069690242163481 C1.8220953602566536 1.7178208755159223, 1.7178208755159226 1.8220953602566536, 1.6069690242163484 1.915111107797445 C1.4961171729167742 2.0081268553382365, 1.375319777650363 2.0927101020998755, 1.2500000000000002 2.1650635094610964 C1.1246802223496375 2.2374169168223172, 0.9910302842862845 2.2997389064532, 0.8550503583141721 2.349231551964771 C0.7190704323420597 2.3987241974763416, 0.576628837219688 2.436891307857982, 0.43412044416732604 2.46201938253052 C0.291612051114964 2.487147457203058, 0.14470681472244212 2.5, 1.5308084989341916e-16 2.5 C-0.1447068147224418 2.5, -0.2916120511149638 2.487147457203058, -0.43412044416732576 2.46201938253052 C-0.5766288372196877 2.436891307857982, -0.7190704323420595 2.3987241974763416, -0.8550503583141718 2.3492315519647713 C-0.991030284286284 2.299738906453201, -1.124680222349637 2.2374169168223177, -1.2499999999999996 2.165063509461097 C-1.375319777650362 2.092710102099876, -1.4961171729167733 2.008126855338237, -1.6069690242163475 1.9151111077974459 C-1.7178208755159217 1.8220953602566548, -1.822095360256653 1.7178208755159234, -1.9151111077974443 1.6069690242163495 C-2.0081268553382357 1.4961171729167755, -2.0927101020998746 1.3753197776503645, -2.1650635094610955 1.250000000000002 C-2.2374169168223164 1.1246802223496395, -2.2997389064531992 0.9910302842862865, -2.34923155196477 0.8550503583141743 C-2.3987241974763407 0.7190704323420621, -2.436891307857981 0.5766288372196907, -2.4620193825305194 0.434120444167329 C-2.487147457203058 0.29161205111496724, -2.5 0.14470681472244545, -2.5 3.636830773662308e-15 C-2.5 -0.14470681472243818, -2.4871474572030587 -0.2916120511149599, -2.4620193825305208 -0.4341204441673218 C-2.436891307857983 -0.5766288372196837, -2.398724197476343 -0.7190704323420553, -2.3492315519647726 -0.8550503583141675 C-2.2997389064532023 -0.9910302842862798, -2.23741691682232 -1.1246802223496328, -2.165063509461099 -1.2499999999999956 C-2.092710102099878 -1.3753197776503583, -2.00812685533824 -1.4961171729167695, -1.9151111077974488 -1.606969024216344 C-1.8220953602566576 -1.7178208755159183, -1.7178208755159263 -1.82209536025665, -1.6069690242163523 -1.9151111077974416 C-1.4961171729167784 -2.0081268553382334, -1.3753197776503672 -2.0927101020998724, -1.2500000000000047 -2.1650635094610937 C-1.1246802223496422 -2.237416916822315, -0.9910302842862897 -2.299738906453198, -0.8550503583141776 -2.3492315519647686 C-0.7190704323420656 -2.3987241974763394, -0.5766288372196942 -2.4368913078579806, -0.43412044416733236 -2.462019382530519 C-0.29161205111497057 -2.4871474572030574, -0.1447068147224489 -2.4999999999999996, -7.120580697431198e-15 -2.5 C0.14470681472243463 -2.5000000000000004, 0.29161205111495647 -2.487147457203059, 0.4341204441673183 -2.4620193825305217 C0.5766288372196802 -2.436891307857984, 0.7190704323420518 -2.3987241974763442, 0.8550503583141642 -2.349231551964774 C0.9910302842862766 -2.2997389064532037, 1.1246802223496295 -2.2374169168223212, 1.2499999999999925 -2.165063509461101 C1.3753197776503554 -2.0927101020998804, 1.4961171729167668 -2.008126855338242, 1.6069690242163412 -1.915111107797451 C1.7178208755159157 -1.82209536025666, 1.8220953602566472 -1.7178208755159294, 1.915111107797439 -1.6069690242163557 C2.0081268553382308 -1.496117172916782, 2.09271010209987 -1.3753197776503712, 2.1650635094610915 -1.2500000000000089 C2.237416916822313 -1.1246802223496466, 2.299738906453196 -0.9910302842862939, 2.3492315519647673 -0.855050358314182 C2.3987241974763385 -0.71907043234207, 2.4368913078579792 -0.5766288372196986, 2.462019382530518 -0.4341204441673369 C2.487147457203057 -0.29161205111497523, 2.4936698970884197 -0.07235340736123454, 2.5 -1.1714553645825241e-14 C2.5063301029115803 0.07235340736121111, 2.50633010291158 -0.07235340736122292, 2.5 0" stroke="#000" stroke-width="2" fill="none" stroke-dasharray="0 0" style=""/></g></g></g><g class="node statediagram-note" id="my-svg-state-Pending----note-8" data-look="classic" transform="translate(136.9765625, 322)"><g class="basic label-container outer-path"><path d="M-93.9765625 -39 L93.9765625 -39 L93.9765625 39 L-93.9765625 39" stroke="none" stroke-width="0" fill="#666" style=""/><path d="M-93.9765625 -39 C-38.34344951075444 -39, 17.28966347849112 -39, 93.9765625 -39 M-93.9765625 -39 C-46.85126500033489 -39, 0.2740324993302181 -39, 93.9765625 -39 M93.9765625 -39 C93.9765625 -14.772425532698914, 93.9765625 9.455148934602171, 93.9765625 39 M93.9765625 -39 C93.9765625 -18.619466191983022, 93.9765625 1.7610676160339551, 93.9765625 39 M93.9765625 39 C26.497162185668643 39, -40.982238128662715 39, -93.9765625 39 M93.9765625 39 C40.76744265976385 39, -12.441677180472297 39, -93.9765625 39 M-93.9765625 39 C-93.9765625 21.142379852046584, -93.9765625 3.284759704093169, -93.9765625 -39 M-93.9765625 39 C-93.9765625 9.268623321970484, -93.9765625 -20.462753356059032, -93.9765625 -39" stroke="#999" stroke-width="1.3" fill="none" stroke-dasharray="0 0" style=""/></g><g class="label noteLabel" style="" transform="translate(-78.9765625, -24)"><rect/><foreignObject width="157.953125" height="48"><div xmlns="http://www.w3.org/1999/xhtml" style="display: table-cell; white-space: nowrap; line-height: 1.5; max-width: 200px; text-align: center;"><span class="nodeLabel markdown-node-label"><p>Not persisted yet --<br />no Cosmos row exists.</p></span></div></foreignObject></g></g><g class="node statediagram-note" id="my-svg-state-Unavailable----note-9" data-look="classic" transform="translate(847.3453125003725, 730)"><g class="basic label-container outer-path"><path d="M-112.734375 -51 L112.734375 -51 L112.734375 51 L-112.734375 51" stroke="none" stroke-width="0" fill="#666" style=""/><path d="M-112.734375 -51 C-41.151192475677846 -51, 30.43199004864431 -51, 112.734375 -51 M-112.734375 -51 C-27.433988992812417 -51, 57.86639701437517 -51, 112.734375 -51 M112.734375 -51 C112.734375 -23.44654291814425, 112.734375 4.106914163711501, 112.734375 51 M112.734375 -51 C112.734375 -24.022852951141, 112.734375 2.954294097717998, 112.734375 51 M112.734375 51 C64.62908083489893 51, 16.523786669797857 51, -112.734375 51 M112.734375 51 C67.43832565485408 51, 22.14227630970815 51, -112.734375 51 M-112.734375 51 C-112.734375 23.09710178537608, -112.734375 -4.805796429247842, -112.734375 -51 M-112.734375 51 C-112.734375 14.267264490606472, -112.734375 -22.465471018787056, -112.734375 -51" stroke="#999" stroke-width="1.3" fill="none" stroke-dasharray="0 0" style=""/></g><g class="label noteLabel" style="" transform="translate(-97.734375, -36)"><rect/><foreignObject width="195.46875" height="72"><div xmlns="http://www.w3.org/1999/xhtml" style="display: table-cell; white-space: nowrap; line-height: 1.5; max-width: 200px; text-align: center;"><span class="nodeLabel markdown-node-label"><p>Substate of Active for<br />Donors only. Other roles<br />stay in Active permanently.</p></span></div></foreignObject></g></g><g class="label edgeLabel" id="Pending---Pending---1" transform="translate(413.47812500037253, 322)"><rect width="0.1" height="0.1"/><g class="label" style="" transform="translate(0, 0)"><rect/><foreignObject width="0" height="0"><div xmlns="http://www.w3.org/1999/xhtml" style="display: table-cell; white-space: nowrap; line-height: 1.5; max-width: 10px; text-align: center;"><span class="nodeLabel"></span></div></foreignObject></g></g><g class="label edgeLabel" id="Pending---Pending---2" transform="translate(473.47812500037253, 508)"><rect width="0.1" height="0.1"/><g class="label" style="" transform="translate(0, 0)"><rect/><foreignObject width="0" height="0"><div xmlns="http://www.w3.org/1999/xhtml" style="display: table-cell; white-space: nowrap; line-height: 1.5; max-width: 10px; text-align: center;"><span class="nodeLabel"></span></div></foreignObject></g></g><g class="label edgeLabel" id="Active---Active---1" transform="translate(1022.6046875007451, 508)"><rect width="0.1" height="0.1"/><g class="label" style="" transform="translate(0, 0)"><rect/><foreignObject width="0" height="0"><div xmlns="http://www.w3.org/1999/xhtml" style="display: table-cell; white-space: nowrap; line-height: 1.5; max-width: 10px; text-align: center;"><span class="nodeLabel"></span></div></foreignObject></g></g><g class="label edgeLabel" id="Active---Active---2" transform="translate(1082.604687500745, 730)"><rect width="0.1" height="0.1"/><g class="label" style="" transform="translate(0, 0)"><rect/><foreignObject width="0" height="0"><div xmlns="http://www.w3.org/1999/xhtml" style="display: table-cell; white-space: nowrap; line-height: 1.5; max-width: 10px; text-align: center;"><span class="nodeLabel"></span></div></foreignObject></g></g></g></g></g><defs><filter id="my-svg-drop-shadow" height="130%" width="130%"><feDropShadow dx="4" dy="4" stdDeviation="0" flood-opacity="0.06" flood-color="#000000"/></filter></defs><defs><filter id="my-svg-drop-shadow-small" height="150%" width="150%"><feDropShadow dx="2" dy="2" stdDeviation="0" flood-opacity="0.06" flood-color="#000000"/></filter></defs><linearGradient id="my-svg-gradient" gradientUnits="objectBoundingBox" x1="0%" y1="0%" x2="100%" y2="0%"><stop offset="0%" stop-color="hsl(0, 0%, 83.3333333333%)" stop-opacity="1"/><stop offset="100%" stop-color="hsl(0, 0%, 88.9215686275%)" stop-opacity="1"/></linearGradient></svg>